<?xml version="1.0" standalone="no"?>
<svg xmlns="http://www.w3.org/2000/svg" viewBox="0 0 234.99238095238098 52.96" width="234.99238095238098" height="52.96"><rect fill="none" stroke="#ffffff" stroke-width="4" width="230.99238095238098" height="48.96" x="2" y="2"></rect><g fill="#ffffff" color="#ffffff" transform="translate(12 12) scale(0.6895239)"><svg width="37.0" height="42.0" x="0.0" y="0.0" viewBox="0 0 37 42"><path fill="currentColor" fill-rule="nonzero" d="M36.57 8.31c0-1.45-.62-2.14-2.06-2.2-4.87-.31-9.5-2.14-14.62-5.66-.58-.4-2.26-.4-2.85 0C11.92 3.97 7.29 5.8 2.42 6.11.98 6.17.36 6.87.36 8.31c0 .91-.06 10.51 0 13.97 0 1.2.12 2.45.44 3.71.69 2.9 2.19 5.6 4.69 8.12 3.19 3.21 12.69 7.74 12.94 7.74.35 0 9.85-4.53 13.03-7.74 2.5-2.52 4-5.22 4.69-8.12.31-1.26.44-2.52.44-3.71.04-3.46-.02-13.05-.02-13.97zM16.64 36.82c-1.46-.82-3.54-2.02-5.31-3.08 1.77-.35 3.56-.87 5.31-1.56v4.64zm0-8.6c-3.07 1.44-6.41 2.21-9.46 2.41-1.23-1.43-2.08-2.91-2.59-4.49.93-.05 1.96-.14 3.07-.29 3.07-.42 6.11-1.22 8.98-2.5v4.87zm0-8.89c-.38.2-.77.39-1.17.57-2.62 1.2-5.45 1.96-8.31 2.36-1.18.16-2.25.25-3.19.28v-.26c-.01-.48-.01-2.3-.01-4.42.06 0 .13-.01.19-.01 1.24-.09 2.57-.28 3.99-.57 2.88-.59 5.74-1.56 8.5-2.97v5.02zm0-9.17a29.68 29.68 0 0 1-9.23 3.57c-1.3.27-2.47.43-3.45.51 0-2.52.01-4.64.01-4.64s1.2-.11 2.49-.38c3.4-.72 6.73-2.1 10.19-4.19v5.13h-.01zm16.33 12.06c-.03 1.05-.14 2.01-.36 2.9-.55 2.34-1.76 4.44-3.74 6.44-.78.79-5.83 3.69-8.6 5.26V5.02c3.9 2.36 7.64 3.82 11.48 4.43.39.06 1.22.16 1.22.16s-.01 11.35 0 12.61z"></path></svg></g><path fill="#ffffff" fill-rule="nonzero" d="M17.20 1.60L19.64 1.60L19.64 28.96L17.20 28.96L17.20 15.88L2.44 15.88L2.44 28.96L0 28.96L0 1.60L2.44 1.60L2.44 13.60L17.20 13.60L17.20 1.60ZM35.72 0.84L36.48 0.84L48.44 28.96L45.88 28.96L42 19.88L30.20 19.88L26.40 28.96L23.84 28.96L35.72 0.84ZM35.12 8.28L31.16 17.60L41.04 17.60L37.08 8.28Q36.76 7.52 36.50 6.66Q36.24 5.80 36.08 5.16L36.08 5.16Q35.92 5.84 35.68 6.70Q35.44 7.56 35.12 8.28L35.12 8.28ZM61.12 0.84L61.88 0.84L73.84 28.96L71.28 28.96L67.40 19.88L55.60 19.88L51.80 28.96L49.24 28.96L61.12 0.84ZM60.52 8.28L56.56 17.60L66.44 17.60L62.48 8.28Q62.16 7.52 61.90 6.66Q61.64 5.80 61.48 5.16L61.48 5.16Q61.32 5.84 61.08 6.70Q60.84 7.56 60.52 8.28L60.52 8.28ZM97.08 28.96L94.44 28.96L91.64 21.84Q91.20 20.72 90.64 19.84Q90.08 18.96 89.30 18.34Q88.52 17.72 87.48 17.40Q86.44 17.08 85.08 17.08L85.08 17.08L81.24 17.08L81.24 28.96L78.80 28.96L78.80 3.72Q77.52 3.52 76.38 3Q75.24 2.48 74.44 1.36L74.44 1.36L75.76 0Q76.60 0.80 77.76 1.20Q78.92 1.60 80.52 1.60L80.52 1.60Q81.44 1.60 82.08 1.54Q82.72 1.48 83.36 1.40Q84.00 1.32 84.78 1.26Q85.56 1.20 86.84 1.20L86.84 1.20Q88.64 1.20 90.12 1.80Q91.60 2.40 92.66 3.46Q93.72 4.52 94.32 5.96Q94.92 7.40 94.92 9.12L94.92 9.12Q94.92 11.88 93.56 13.66Q92.20 15.44 89.88 16.16L89.88 16.16Q91.20 16.76 92.02 17.80Q92.84 18.84 93.48 20.32L93.48 20.32L97.08 28.96ZM86.72 3.40L86.72 3.40Q85.44 3.40 84.68 3.46Q83.92 3.52 83.38 3.58Q82.84 3.64 82.36 3.72Q81.88 3.80 81.24 3.80L81.24 3.80L81.24 14.88L86.80 14.88Q88.04 14.88 89.10 14.48Q90.16 14.08 90.92 13.34Q91.68 12.60 92.10 11.52Q92.52 10.44 92.52 9.12L92.52 9.12Q92.52 6.48 90.94 4.94Q89.36 3.40 86.72 3.40ZM117.20 26.68L117.20 28.96L101.68 28.96L101.68 1.60L104.12 1.60L104.12 26.68L117.20 26.68ZM140.52 26.68L140.52 28.96L121.80 28.96L121.80 1.60L139.72 1.60L139.72 3.88L124.24 3.88L124.24 13.36L136.92 13.36L136.92 15.64L124.24 15.64L124.24 26.68L140.52 26.68ZM163.12 18.96L162.52 20.76Q161.08 20.48 159.88 19.90Q158.68 19.32 157.68 18.62Q156.68 17.92 155.88 17.14Q155.08 16.36 154.48 15.64L154.48 15.64L150.56 10.80Q149.88 10 149.10 8.88Q148.32 7.76 147.64 6.68L147.64 6.68Q147.76 7.68 147.86 8.78Q147.96 9.88 147.96 10.80L147.96 10.80L147.96 28.96L145.52 28.96L145.52 1.24L146.28 1.24L156.92 14.80Q157.20 15.24 157.76 15.76L157.76 15.76L169.72 1.24L170.48 1.24L170.48 28.96L168.04 28.96L168.04 10.80Q168.04 9.80 168.14 8.54Q168.24 7.28 168.36 6.24L168.36 6.24Q167.52 7.40 166.60 8.66Q165.68 9.92 164.92 10.80L164.92 10.80L159.48 17.24Q160.28 17.80 161.18 18.26Q162.08 18.72 163.12 18.96L163.12 18.96Z" transform="translate(52.513 12) scale(1)"></path></svg>